<?xml version="1.0" standalone="no"?><!DOCTYPE svg PUBLIC "-//W3C//DTD SVG 1.1//EN" "http://www.w3.org/Graphics/SVG/1.1/DTD/svg11.dtd"><svg t="1698816735348" class="icon" viewBox="0 0 1024 1024" version="1.1" xmlns="http://www.w3.org/2000/svg" p-id="4178" width="16" height="16" xmlns:xlink="http://www.w3.org/1999/xlink"><path d="M106.614154 755.2a59.726769 59.726769 0 0 1-12.209231 9.964308c-12.327385 7.483077-25.796923 8.566154-38.144 5.710769-1.851077-0.413538-2.796308-0.708923-2.56-0.610462-27.549538-10.850462-56.713846 11.52-53.444923 40.96 24.969846 224.787692 378.860308 233.944615 468.598154 10.31877a39.384615 39.384615 0 0 0-8.861539-42.673231l-178.569846-176.364308a39.286154 39.286154 0 0 0-27.608615-11.323077c-89.934769 0-121.816615 39.227077-134.596923 119.000616l-0.590769 3.859692c-4.253538 26.624-7.108923 35.997538-12.012308 41.156923zM393.846154 814.670769c-66.067692 112.049231-240.049231 117.897846-295.384616 33.575385a130.796308 130.796308 0 0 0 41.412924-16.187077 140.307692 140.307692 0 0 0 28.809846-23.000615c20.401231-21.110154 26.407385-40.388923 33.339077-83.298462l0.590769-3.780923c6.498462-39.876923 11.618462-50.353231 42.023384-52.440615L393.846154 814.670769z m66.363077-91.254154a84.952615 84.952615 0 0 0 120.674461 0.059077l4.608-4.52923 13.804308-13.784616c14.828308-14.867692 31.350154-31.665231 49.112615-50.077538 50.806154-52.578462 101.612308-107.52 149.07077-162.146462a2797.390769 2797.390769 0 0 0 68.647384-81.880615C1008.758154 233.747692 1066.200615 118.035692 990.542769 59.076923c-67.150769-52.342154-177.033846 2.638769-336.482461 130.56a2562.500923 2562.500923 0 0 0-88.812308 74.870154 3940.962462 3940.962462 0 0 0-159.488 148.952615 4043.933538 4043.933538 0 0 0-62.483692 62.877539l-4.824616 5.001846c-32.374154 33.083077-32.019692 87.04 0.886154 120.201846l120.871385 121.895385z m56.654769-55.748923l-120.969846-121.954461a7.384615 7.384615 0 0 1-0.157539-10.003693l4.785231-4.982153a3967.744 3967.744 0 0 1 61.184-61.538462 3865.993846 3865.993846 0 0 1 156.356923-145.979077 2486.193231 2486.193231 0 0 1 86.134154-72.605538c63.291077-50.766769 118.626462-88.753231 163.052308-110.985846 42.043077-21.011692 68.509538-24.891077 76.150154-18.924308 4.253538 3.308308 2.264615 25.009231-18.491077 66.756923-22.902154 46.08-63.783385 105.275077-118.941539 173.843692-20.598154 25.6-42.929231 52.184615-66.756923 79.596308a4180.145231 4180.145231 0 0 1-146.392615 159.172923 4313.777231 4313.777231 0 0 1-66.402462 67.190154c-2.953846 2.973538-7.010462 2.953846-9.550769 0.413538z" fill="#0075ff" p-id="4179"></path></svg>