<?xml version="1.0" standalone="no"?><!DOCTYPE svg PUBLIC "-//W3C//DTD SVG 1.1//EN" "http://www.w3.org/Graphics/SVG/1.1/DTD/svg11.dtd"><svg t="1698814624124" class="icon" viewBox="0 0 1024 1024" version="1.1" xmlns="http://www.w3.org/2000/svg" p-id="4864" xmlns:xlink="http://www.w3.org/1999/xlink" width="16" height="16"><path d="M980.343467 323.413333l-272.622934-273.749333C683.997867 25.8048 651.5712 12.6976 616.448 12.6976c-40.277333 0-80.6912 17.408-110.933333 47.786667L59.835733 507.938133c-27.306667 27.374933-44.032 62.702933-47.104 99.396267-3.2768 39.389867 9.966933 77.175467 36.317867 103.594667l272.622933 273.783466c18.5344 18.6368 45.294933 28.091733 79.496534 28.091734 40.482133 0 98.9184-14.916267 122.709333-38.912l445.6448-447.419734c27.306667-27.4432 44.032-62.737067 47.104-99.464533 3.310933-39.389867-9.9328-77.141333-36.283733-103.594667zM401.169067 908.765867a52.224 52.224 0 0 1-9.3184-0.7168l-269.585067-270.6432c-6.485333-6.519467-6.724267-16.1792-6.314667-21.333334 0.989867-12.049067 7.236267-24.644267 17.1008-34.542933l44.509867-44.680533 317.5424 318.8736-41.6768 41.847466a144.9984 144.9984 0 0 1-52.258133 11.195734zM913.408 418.338133c-1.024 12.049067-7.2704 24.610133-17.1008 34.5088l-327.953067 329.250134-317.508266-318.8736 327.953066-329.250134c10.786133-10.8544 24.8832-17.3056 37.6832-17.3056 5.256533 0 12.663467 1.1264 18.0224 6.485334l272.622934 273.783466c6.485333 6.5536 6.690133 16.213333 6.280533 21.4016z" fill="#0075ff" p-id="4865"></path></svg>