<?xml version="1.0" standalone="no"?><!DOCTYPE svg PUBLIC "-//W3C//DTD SVG 1.1//EN" "http://www.w3.org/Graphics/SVG/1.1/DTD/svg11.dtd"><svg t="1698724310802" class="icon" viewBox="0 0 1024 1024" version="1.1" xmlns="http://www.w3.org/2000/svg" p-id="1480" xmlns:xlink="http://www.w3.org/1999/xlink" width="200" height="200"><path d="M512 1023.926857a512 512 0 1 1 0-1024 512 512 0 0 1 0 1024z m0-153.6a76.8 76.8 0 1 0 0-153.6 76.8 76.8 0 0 0 0 153.6zM588.8 204.8c-4.827429-31.232-51.2-25.673143-51.2-25.673143h-51.2c-47.177143-1.609143-51.2 25.673143-51.2 25.673143l25.6 409.526857c3.803429 33.792 51.2 25.6 51.2 25.6h25.6c16.822857 2.413714 25.6-25.6 25.6-25.6s29.110857-386.633143 25.6-409.526857z" fill="#e6a23c" p-id="1481"></path></svg>